<svg width="356" height="356" viewBox="0 0 356 356" fill="none" xmlns="http://www.w3.org/2000/svg">
<path d="M31.6879 232.569C30.8987 207.147 33.9239 185.625 40.7634 168.004C47.6029 150.383 57.5333 136.999 70.5546 127.852C83.7075 118.706 99.1621 114.132 116.919 114.132C129.282 114.132 141.12 116.755 152.431 122.001C163.743 127.247 176.567 136.327 190.903 149.24C198.532 156.1 204.977 161.346 210.238 164.977C215.499 168.475 221.55 170.223 228.389 170.223C237.728 170.223 245.422 166.524 251.472 159.126C257.523 151.594 260.351 139.689 259.956 123.414H324.274C325.194 148.971 322.169 170.56 315.198 188.181C308.227 205.801 298.165 219.185 285.012 228.332C271.859 237.479 256.536 242.052 239.043 242.052C226.022 242.052 213.789 239.295 202.346 233.78C191.035 228.13 178.474 219.118 164.663 206.743C156.509 199.345 149.998 194.032 145.131 190.804C140.265 187.441 134.478 185.759 127.77 185.759C118.431 185.759 110.737 189.391 104.686 196.655C98.636 203.784 95.8081 215.755 96.2027 232.569H31.6879Z" fill="#0067DE"/>
</svg>
